/vscmnt/brussel_pixiu_data/_data_brussel/112/vsc11236/PredSimResults/SUBJ04opt3D/weighted/expIG/worker_03.mot
version=1
nRows=4
nColumns=50
inDegrees=yes
endheader
                time	         pelvis_tilt	         pelvis_list	     pelvis_rotation	           pelvis_tx	           pelvis_ty	           pelvis_tz	       hip_flexion_r	     hip_adduction_r	      hip_rotation_r	        knee_angle_r	       ankle_angle_r	         mtp_angle_r	       hip_flexion_l	     hip_adduction_l	      hip_rotation_l	        knee_angle_l	       ankle_angle_l	         mtp_angle_l	    lumbar_extension	      lumbar_bending	     lumbar_rotation	 ercspn_r/activation	 intobl_r/activation	 extobl_r/activation	    abd_r/activation	    add_r/activation	hamstrings_r/activation	bifemsh_r/activation	glut_max_r/activation	iliopsoas_r/activation	rect_fem_r/activation	  vasti_r/activation	gastroc_r/activation	 soleus_r/activation	tib_ant_r/activation	 ercspn_l/activation	 intobl_l/activation	 extobl_l/activation	    abd_l/activation	    add_l/activation	hamstrings_l/activation	bifemsh_l/activation	glut_max_l/activation	iliopsoas_l/activation	rect_fem_l/activation	  vasti_l/activation	gastroc_l/activation	 soleus_l/activation	tib_ant_l/activation	
          0.68860981	         -1.57265070	         -0.28986840	         -8.55847236	          0.58531834	          0.88442411	          0.01117655	        -11.87470325	         -0.20530663	         -7.23032286	         -6.84454476	         14.14935228	         17.60512609	         28.20299992	         -2.91034923	         -9.62452922	        -10.43752119	          3.98692117	          0.23001717	        -14.05617485	          4.29805448	          7.76152222	          0.01000000	          0.00999999	          0.00999999	          0.07896128	          0.00999999	          0.02961252	          0.29093664	          0.01994175	          0.01858763	          0.00999999	          0.00999999	          0.26331878	          0.24363450	          0.01319465	          0.04545823	          0.23384265	          0.02181950	          0.00999999	          0.25472552	          0.06562703	          0.01938059	          0.01693046	          0.18921556	          0.04209090	          0.04999958	          0.00999999	          0.00999999	          0.33777582	
          0.70238200	         -1.68374563	         -0.28023758	         -8.32863420	          0.60043719	          0.88198389	          0.01078422	        -12.55608442	         -0.31167594	         -7.89489585	         -7.32907736	         14.05773293	         18.96975307	         28.21855849	         -2.74691543	         -9.83710826	        -11.81064312	          3.81231750	          0.22726874	        -13.54221892	          3.65415545	          7.82123486	          0.02714026	          0.00999999	          0.00999999	          0.06422036	          0.00999999	          0.02408429	          0.24891434	          0.01621891	          0.01511759	          0.00999999	          0.00999999	          0.25808532	          0.25220959	          0.01073140	          0.03697184	          0.22655312	          0.01774612	          0.00999999	          0.31198196	          0.06740113	          0.01576252	          0.01376979	          0.15389177	          0.03423314	          0.04066539	          0.01511759	          0.01858763	          0.33116565	
          0.71615420	         -1.77830768	         -0.21231944	         -8.05770894	          0.61601994	          0.87966411	          0.01034441	        -13.20044618	         -0.48380103	         -8.60069878	         -7.95965386	         13.88177545	         20.41580819	         28.11510944	         -2.57187853	         -9.90180659	        -13.20817435	          3.57938625	          0.22120744	        -12.98458726	          2.91860659	          7.85830850	          0.02749354	          0.00999999	          0.00999999	          0.05223135	          0.00999999	          0.03196512	          0.20244566	          0.01319108	          0.01229536	          0.00999999	          0.00999999	          0.23439315	          0.25204673	          0.00999999	          0.03006973	          0.22011063	          0.01443318	          0.01440129	          0.25373947	          0.07207464	          0.01281989	          0.03250733	          0.12516241	          0.02784231	          0.03981495	          0.01229535	          0.01511759	          0.35312955	
          0.72992640	         -1.85770610	         -0.08088628	         -7.73594469	          0.63186620	          0.87764437	          0.00979256	        -13.74686131	         -0.73405767	         -9.35787510	         -8.81829737	         13.59799704	         21.93028016	         27.94947345	         -2.34876251	        -10.05857583	        -14.48312607	          3.17796515	          0.20766799	        -12.41081537	          2.09314959	          7.86263538	          0.02834430	          0.00999999	          0.00999999	          0.04248052	          0.00999999	          0.03986257	          0.16465200	          0.01072850	          0.00999999	          0.00999999	          0.00999999	          0.19063536	          0.24264548	          0.00999999	          0.02445615	          0.17901918	          0.01173871	          0.02227704	          0.21684526	          0.07823120	          0.01042662	          0.02643869	          0.10179641	          0.02264456	          0.10856702	          0.00999999	          0.01229535	          0.38093643	
